<?xml version="1.0" encoding="UTF-8"?>
<svg xmlns="http://www.w3.org/2000/svg" xmlns:xlink="http://www.w3.org/1999/xlink" width="397.646818pt" height="285.03092pt" viewBox="0 0 397.646818 285.03092" version="1.2">
<defs>
<clipPath id="clip1">
  <path d="M 0.496094 0 L 396.796875 0 L 396.796875 284.066406 L 0.496094 284.066406 Z M 0.496094 0 "/>
</clipPath>
<clipPath id="clip2">
  <path d="M 60.097656 195 L 385.152344 195 L 385.152344 221 L 60.097656 221 Z M 60.097656 195 "/>
</clipPath>
<clipPath id="clip3">
  <path d="M 60.097656 181 L 385.152344 181 L 385.152344 211 L 60.097656 211 Z M 60.097656 181 "/>
</clipPath>
<clipPath id="clip4">
  <path d="M 60.097656 166 L 385.152344 166 L 385.152344 201 L 60.097656 201 Z M 60.097656 166 "/>
</clipPath>
<clipPath id="clip5">
  <path d="M 60.097656 151 L 385.152344 151 L 385.152344 193 L 60.097656 193 Z M 60.097656 151 "/>
</clipPath>
<clipPath id="clip6">
  <path d="M 60.097656 136 L 385.152344 136 L 385.152344 185 L 60.097656 185 Z M 60.097656 136 "/>
</clipPath>
<clipPath id="clip7">
  <path d="M 60.097656 67 L 385.152344 67 L 385.152344 123 L 60.097656 123 Z M 60.097656 67 "/>
</clipPath>
<clipPath id="clip8">
  <path d="M 60.097656 59 L 385.152344 59 L 385.152344 108 L 60.097656 108 Z M 60.097656 59 "/>
</clipPath>
<clipPath id="clip9">
  <path d="M 60.097656 51 L 385.152344 51 L 385.152344 93 L 60.097656 93 Z M 60.097656 51 "/>
</clipPath>
<clipPath id="clip10">
  <path d="M 60.097656 43 L 385.152344 43 L 385.152344 78 L 60.097656 78 Z M 60.097656 43 "/>
</clipPath>
<clipPath id="clip11">
  <path d="M 60.097656 33 L 385.152344 33 L 385.152344 63 L 60.097656 63 Z M 60.097656 33 "/>
</clipPath>
<clipPath id="clip12">
  <path d="M 60.097656 23 L 385.152344 23 L 385.152344 49 L 60.097656 49 Z M 60.097656 23 "/>
</clipPath>
</defs>
<g id="surface1">
<g clip-path="url(#clip1)" clip-rule="nonzero">
<path style=" stroke:none;fill-rule:nonzero;fill:rgb(100%,100%,100%);fill-opacity:1;" d="M 0.496094 284.066406 L 396.796875 284.066406 L 396.796875 0 L 0.496094 0 Z M 0.496094 284.066406 "/>
</g>
<g clip-path="url(#clip2)" clip-rule="nonzero">
<path style="fill:none;stroke-width:1.5;stroke-linecap:butt;stroke-linejoin:round;stroke:rgb(0%,0%,0%);stroke-opacity:1;stroke-miterlimit:10;" d="M 59.802592 87.878516 L 63.098918 87.627666 L 66.391324 87.365058 L 69.687649 87.09069 L 71.619978 86.922151 L 72.980055 86.800645 L 76.27638 86.498841 L 79.572706 86.181359 L 82.865112 85.84428 L 86.161437 85.491522 L 89.453843 85.123086 L 92.750169 84.735052 L 92.832479 84.723294 L 96.042575 84.327421 L 99.3389 83.904112 L 102.631306 83.457285 L 105.927632 82.986942 L 109.024061 82.528356 L 109.220038 82.497 L 112.516363 81.987461 L 115.812689 81.458325 L 119.105095 80.901751 L 122.373983 80.333419 L 122.40142 80.32558 L 125.693826 79.733731 L 128.990152 79.118365 L 132.282558 78.483401 L 134.022829 78.134562 L 135.578883 77.828839 L 138.871289 77.162519 L 142.167614 76.48052 L 144.738827 75.939625 L 145.46002 75.790683 L 148.756346 75.089087 L 152.052671 74.383571 L 155.035434 73.744688 L 155.345077 73.678056 L 158.641403 72.97254 L 161.933809 72.274864 L 165.230134 71.585026 L 165.418272 71.545831 L 168.52254 70.910867 L 171.818866 70.252386 L 175.111272 69.617422 L 176.5419 69.350894 L 178.407597 69.005975 L 181.700003 68.421965 L 184.996329 67.87323 L 188.292654 67.355852 L 189.680168 67.152037 L 191.58506 66.87767 L 194.881386 66.438682 L 198.173791 66.042809 L 201.470117 65.693971 L 204.762523 65.392167 L 208.058848 65.137398 L 210.97106 64.957099 L 211.351254 64.933582 L 214.64758 64.776801 L 217.939986 64.674893 L 221.236311 64.62002 L 224.532637 64.62002 L 227.825043 64.674893 L 231.121368 64.776801 L 234.413774 64.933582 L 234.797888 64.957099 L 237.7101 65.137398 L 241.002506 65.392167 L 244.298831 65.693971 L 247.591237 66.042809 L 250.887563 66.438682 L 254.179969 66.87767 L 256.08878 67.152037 L 257.476294 67.355852 L 260.772619 67.87323 L 264.065025 68.421965 L 267.361351 69.005975 L 269.227048 69.350894 L 270.653757 69.617422 L 273.950082 70.252386 L 277.242488 70.910867 L 280.346757 71.545831 L 280.538814 71.585026 L 283.83122 72.274864 L 287.127545 72.97254 L 290.419951 73.678056 L 290.729594 73.744688 L 293.716277 74.383571 L 297.012602 75.089087 L 300.305008 75.790683 L 301.030121 75.939625 L 303.601334 76.48052 L 306.89374 77.162519 L 310.190065 77.828839 L 311.746119 78.134562 L 313.482471 78.483401 L 316.778797 79.118365 L 320.071202 79.733731 L 323.367528 80.32558 L 323.391045 80.333419 L 326.659934 80.901751 L 329.956259 81.458325 L 333.252585 81.987461 L 336.544991 82.497 L 336.744887 82.528356 L 339.841316 82.986942 L 343.133722 83.457285 L 346.430048 83.904112 L 349.722454 84.327421 L 352.936469 84.723294 L 353.018779 84.735052 L 356.311185 85.123086 L 359.607511 85.491522 L 362.899917 85.84428 L 366.196242 86.181359 L 369.492568 86.498841 L 372.784974 86.800645 L 374.14897 86.922151 L 376.081299 87.09069 L 379.373705 87.365058 L 382.67003 87.627666 L 385.962436 87.878516 " transform="matrix(0.996612,0,0,-0.996612,0.497699,284.065124)"/>
</g>
<path style="fill:none;stroke-width:1.5;stroke-linecap:butt;stroke-linejoin:round;stroke:rgb(0%,0%,0%);stroke-opacity:1;stroke-miterlimit:10;" d="M 217.939986 163.290291 L 215.560831 163.791991 L 214.64758 164.442633 L 211.562909 165.990847 L 211.351254 166.253456 L 208.870191 168.185785 L 208.058848 169.490989 L 207.220069 170.384642 L 206.067727 172.579579 L 205.464119 174.774516 L 205.240706 176.973373 L 205.362211 179.16831 L 205.848233 181.363248 L 206.753645 183.562104 L 208.058848 185.623778 L 208.152917 185.757042 L 210.140119 187.951979 L 211.351254 189.006333 L 213.130721 190.150836 L 214.64758 191.020972 L 217.939986 192.200751 L 218.817961 192.345773 L 221.236311 192.773002 L 224.532637 192.773002 L 226.950987 192.345773 L 227.825043 192.200751 L 231.121368 191.020972 L 232.638227 190.150836 L 234.413774 189.006333 L 235.628829 187.951979 L 237.612111 185.757042 L 237.7101 185.623778 L 239.015303 183.562104 L 239.920715 181.363248 L 240.406737 179.16831 L 240.524323 176.973373 L 240.30091 174.774516 L 239.701221 172.579579 L 238.548879 170.384642 L 237.7101 169.490989 L 236.894837 168.185785 L 234.413774 166.253456 L 234.206039 165.990847 L 231.121368 164.442633 L 230.208118 163.791991 L 227.825043 163.290291 L 224.532637 162.784671 L 221.236311 162.784671 L 217.939986 163.290291 " transform="matrix(0.996612,0,0,-0.996612,0.497699,284.065124)"/>
<g clip-path="url(#clip3)" clip-rule="nonzero">
<path style="fill:none;stroke-width:1.5;stroke-linecap:butt;stroke-linejoin:round;stroke:rgb(0%,0%,0%);stroke-opacity:1;stroke-miterlimit:10;" d="M 59.802592 102.443493 L 61.923058 102.294551 L 63.098918 102.212241 L 66.391324 101.96531 L 69.687649 101.706621 L 72.980055 101.432254 L 76.27638 101.142209 L 79.572706 100.832566 L 82.865112 100.507245 L 86.161437 100.162326 L 86.710172 100.099613 L 89.453843 99.79389 L 92.750169 99.405857 L 96.042575 98.994306 L 99.3389 98.555318 L 102.631306 98.092814 L 103.889476 97.904676 L 105.927632 97.598953 L 109.220038 97.081575 L 112.516363 96.528921 L 115.812689 95.944911 L 117.094375 95.705819 L 119.105095 95.333464 L 122.40142 94.686741 L 125.693826 94.004743 L 127.978913 93.510882 L 128.990152 93.291388 L 132.282558 92.550597 L 135.578883 91.77453 L 137.44066 91.312025 L 138.871289 90.967106 L 142.167614 90.136166 L 145.46002 89.277789 L 146.063628 89.117088 L 148.756346 88.403733 L 152.052671 87.514 L 154.208413 86.922151 L 155.345077 86.612508 L 158.641403 85.711016 L 161.933809 84.805604 L 162.227774 84.723294 L 165.230134 83.911951 L 168.52254 83.026137 L 170.411754 82.528356 L 171.818866 82.16384 L 175.111272 81.32898 L 178.407597 80.521557 L 179.211101 80.333419 L 181.700003 79.753329 L 184.996329 79.024296 L 188.292654 78.346217 L 189.378364 78.134562 L 191.58506 77.715173 L 194.881386 77.135082 L 198.173791 76.617704 L 201.470117 76.159119 L 203.273101 75.939625 L 204.762523 75.759327 L 208.058848 75.422247 L 211.351254 75.151799 L 214.64758 74.947984 L 217.939986 74.8108 L 221.236311 74.744168 L 224.532637 74.744168 L 227.825043 74.8108 L 231.121368 74.947984 L 234.413774 75.151799 L 237.7101 75.422247 L 241.002506 75.759327 L 242.495847 75.939625 L 244.298831 76.159119 L 247.591237 76.617704 L 250.887563 77.135082 L 254.179969 77.715173 L 256.386664 78.134562 L 257.476294 78.346217 L 260.772619 79.024296 L 264.065025 79.753329 L 266.553928 80.333419 L 267.361351 80.521557 L 270.653757 81.32898 L 273.950082 82.16384 L 275.353274 82.528356 L 277.242488 83.026137 L 280.538814 83.911951 L 283.541174 84.723294 L 283.83122 84.805604 L 287.127545 85.711016 L 290.419951 86.612508 L 291.560535 86.922151 L 293.716277 87.514 L 297.012602 88.403733 L 299.70532 89.117088 L 300.305008 89.277789 L 303.601334 90.136166 L 306.89374 90.967106 L 308.324368 91.312025 L 310.190065 91.77453 L 313.482471 92.550597 L 316.778797 93.291388 L 317.790035 93.510882 L 320.071202 94.004743 L 323.367528 94.686741 L 326.659934 95.333464 L 328.674573 95.705819 L 329.956259 95.944911 L 333.252585 96.528921 L 336.544991 97.081575 L 339.841316 97.598953 L 341.875553 97.904676 L 343.133722 98.092814 L 346.430048 98.555318 L 349.722454 98.994306 L 353.018779 99.405857 L 356.311185 99.79389 L 359.058776 100.099613 L 359.607511 100.162326 L 362.899917 100.507245 L 366.196242 100.832566 L 369.492568 101.142209 L 372.784974 101.432254 L 376.081299 101.706621 L 379.373705 101.96531 L 382.67003 102.212241 L 383.84197 102.294551 L 385.962436 102.443493 " transform="matrix(0.996612,0,0,-0.996612,0.497699,284.065124)"/>
</g>
<path style="fill:none;stroke-width:1.5;stroke-linecap:butt;stroke-linejoin:round;stroke:rgb(0%,0%,0%);stroke-opacity:1;stroke-miterlimit:10;" d="M 217.939986 163.172705 L 214.996418 163.791991 L 214.64758 164.042841 L 211.351254 165.457791 L 210.05389 165.990847 L 208.058848 167.644889 L 207.20831 168.185785 L 205.256384 170.384642 L 204.762523 171.352766 L 203.876709 172.579579 L 202.971297 174.774516 L 202.516632 176.973373 L 202.410804 179.16831 L 202.642057 181.363248 L 203.222147 183.562104 L 204.194191 185.757042 L 204.762523 186.705568 L 205.566027 187.951979 L 207.45916 190.150836 L 208.058848 190.723087 L 210.120522 192.345773 L 211.351254 193.180633 L 214.138041 194.54463 L 214.64758 194.775882 L 217.939986 195.783202 L 221.236311 196.253546 L 224.532637 196.253546 L 227.825043 195.783202 L 231.121368 194.775882 L 231.626988 194.54463 L 234.413774 193.180633 L 235.644507 192.345773 L 237.7101 190.723087 L 238.305868 190.150836 L 240.202921 187.951979 L 241.002506 186.705568 L 241.574757 185.757042 L 242.546801 183.562104 L 243.126891 181.363248 L 243.354224 179.16831 L 243.252316 176.973373 L 242.797651 174.774516 L 241.88832 172.579579 L 241.002506 171.352766 L 240.512564 170.384642 L 238.556718 168.185785 L 237.7101 167.644889 L 235.711139 165.990847 L 234.413774 165.457791 L 231.121368 164.042841 L 230.76861 163.791991 L 227.825043 163.172705 L 224.532637 162.768993 L 221.236311 162.768993 L 217.939986 163.172705 " transform="matrix(0.996612,0,0,-0.996612,0.497699,284.065124)"/>
<g clip-path="url(#clip4)" clip-rule="nonzero">
<path style="fill:none;stroke-width:1.5;stroke-linecap:butt;stroke-linejoin:round;stroke:rgb(0%,0%,0%);stroke-opacity:1;stroke-miterlimit:10;" d="M 59.802592 117.239722 L 72.980055 116.365667 L 86.161437 115.229003 L 96.042575 114.151132 L 105.927632 112.806733 L 112.516363 111.736701 L 119.105095 110.498129 L 126.438537 108.883282 L 132.282558 107.429136 L 138.871289 105.575198 L 145.46002 103.513525 L 155.380353 100.099613 L 175.111272 93.067975 L 181.700003 90.947509 L 188.292654 89.054375 L 194.881386 87.435609 L 201.470117 86.126486 L 208.058848 85.154442 L 214.64758 84.531237 L 221.236311 84.260789 L 227.825043 84.350938 L 234.413774 84.801684 L 241.002506 85.597349 L 247.591237 86.741852 L 254.179969 88.203837 L 260.772619 89.967626 L 267.361351 91.982265 L 277.242488 95.356981 L 287.127545 98.931593 L 297.012602 102.412137 L 303.601334 104.563959 L 310.789753 106.688345 L 316.778797 108.271835 L 323.367528 109.808292 L 329.956259 111.137012 L 336.544991 112.293274 L 346.430048 113.735661 L 356.311185 114.895843 L 366.196242 115.83653 L 379.373705 116.828171 L 385.962436 117.239722 " transform="matrix(0.996612,0,0,-0.996612,0.497699,284.065124)"/>
</g>
<path style="fill:none;stroke-width:1.5;stroke-linecap:butt;stroke-linejoin:round;stroke:rgb(0%,0%,0%);stroke-opacity:1;stroke-miterlimit:10;" d="M 214.64758 163.670485 L 213.906789 163.791991 L 211.351254 164.732678 L 208.29794 165.990847 L 208.058848 166.186824 L 204.931063 168.185785 L 204.762523 168.381761 L 202.493115 170.384642 L 201.470117 171.948534 L 200.929222 172.579579 L 199.745523 174.774516 L 199.075284 176.973373 L 198.761721 179.16831 L 198.757802 181.363248 L 199.055686 183.562104 L 199.678891 185.757042 L 200.658774 187.951979 L 201.470117 189.292459 L 202.003173 190.150836 L 203.766962 192.345773 L 204.762523 193.353093 L 206.110842 194.54463 L 208.058848 195.998776 L 209.30134 196.739567 L 211.351254 197.852714 L 214.153719 198.934505 L 214.64758 199.122642 L 217.939986 199.945744 L 221.236311 200.337697 L 224.532637 200.337697 L 227.825043 199.945744 L 231.121368 199.122642 L 231.615229 198.934505 L 234.413774 197.852714 L 236.467608 196.739567 L 237.7101 195.998776 L 239.654187 194.54463 L 241.002506 193.353093 L 242.001986 192.345773 L 243.765775 190.150836 L 244.298831 189.292459 L 245.110174 187.951979 L 246.090057 185.757042 L 246.709343 183.562104 L 247.011147 181.363248 L 247.007227 179.16831 L 246.693665 176.973373 L 246.019505 174.774516 L 244.839726 172.579579 L 244.298831 171.948534 L 243.275834 170.384642 L 241.002506 168.381761 L 240.837885 168.185785 L 237.7101 166.186824 L 237.471008 165.990847 L 234.413774 164.732678 L 231.86216 163.791991 L 231.121368 163.670485 L 227.825043 163.051199 L 224.532637 162.749395 L 221.236311 162.749395 L 217.939986 163.051199 L 214.64758 163.670485 " transform="matrix(0.996612,0,0,-0.996612,0.497699,284.065124)"/>
<g clip-path="url(#clip5)" clip-rule="nonzero">
<path style="fill:none;stroke-width:1.5;stroke-linecap:butt;stroke-linejoin:round;stroke:rgb(0%,0%,0%);stroke-opacity:1;stroke-miterlimit:10;" d="M 59.802592 132.247606 L 72.980055 131.593044 L 86.161437 130.722908 L 96.042575 129.864531 L 105.927632 128.751384 L 112.516363 127.826375 L 120.347586 126.454539 L 125.693826 125.333553 L 132.282558 123.667753 L 138.871289 121.641355 L 145.46002 119.226924 L 152.052671 116.42054 L 161.933809 111.654391 L 168.52254 108.338467 L 176.432154 104.493408 L 181.700003 102.149528 L 188.292654 99.527362 L 194.881386 97.320666 L 200.882187 95.705819 L 204.762523 94.851362 L 208.058848 94.263432 L 214.000857 93.510882 L 214.64758 93.44033 L 217.939986 93.201239 L 221.236311 93.083653 L 224.532637 93.083653 L 227.825043 93.201239 L 231.764171 93.510882 L 234.413774 93.793088 L 237.7101 94.263432 L 241.002506 94.851362 L 247.591237 96.383898 L 254.179969 98.3711 L 260.772619 100.789451 L 267.361351 103.595835 L 273.950082 106.704023 L 293.716277 116.42054 L 300.305008 119.226924 L 306.89374 121.641355 L 313.482471 123.667753 L 320.071202 125.333553 L 326.659934 126.70147 L 333.252585 127.826375 L 339.841316 128.751384 L 349.722454 129.864531 L 361.292909 130.848333 L 372.784974 131.593044 L 385.962436 132.247606 " transform="matrix(0.996612,0,0,-0.996612,0.497699,284.065124)"/>
</g>
<path style="fill:none;stroke-width:1.5;stroke-linecap:butt;stroke-linejoin:round;stroke:rgb(0%,0%,0%);stroke-opacity:1;stroke-miterlimit:10;" d="M 214.64758 163.345164 L 211.943104 163.791991 L 211.351254 164.011484 L 208.058848 164.971769 L 205.197591 165.990847 L 204.762523 166.261295 L 201.470117 168.072118 L 201.246704 168.185785 L 198.487354 170.384642 L 198.173791 170.788353 L 196.480554 172.579579 L 195.210626 174.774516 L 194.881386 175.687767 L 194.301295 176.973373 L 193.752561 179.16831 L 193.568343 181.363248 L 193.693768 183.562104 L 194.120997 185.757042 L 194.857868 187.951979 L 194.881386 188.002933 L 195.802475 190.150836 L 197.111599 192.345773 L 198.173791 193.756804 L 198.785238 194.54463 L 200.870429 196.739567 L 201.470117 197.276543 L 203.520032 198.934505 L 204.762523 199.816399 L 206.988816 201.133361 L 208.058848 201.713452 L 211.351254 203.120564 L 212.009736 203.328299 L 214.64758 204.139642 L 217.939986 204.794203 L 221.236311 205.111685 L 224.532637 205.111685 L 227.825043 204.794203 L 231.121368 204.139642 L 233.759213 203.328299 L 234.413774 203.120564 L 237.7101 201.713452 L 238.780132 201.133361 L 241.002506 199.816399 L 242.248916 198.934505 L 244.298831 197.276543 L 244.8946 196.739567 L 246.98371 194.54463 L 247.591237 193.756804 L 248.657349 192.345773 L 249.962553 190.150836 L 250.887563 188.002933 L 250.91108 187.951979 L 251.644032 185.757042 L 252.071261 183.562104 L 252.200605 181.363248 L 252.012468 179.16831 L 251.467653 176.973373 L 250.887563 175.687767 L 250.558322 174.774516 L 249.288394 172.579579 L 247.591237 170.788353 L 247.281594 170.384642 L 244.518325 168.185785 L 244.298831 168.072118 L 241.002506 166.261295 L 240.571357 165.990847 L 237.7101 164.971769 L 234.413774 164.011484 L 233.821925 163.791991 L 231.121368 163.345164 L 227.825043 162.933613 L 224.532637 162.729798 L 221.236311 162.729798 L 217.939986 162.933613 L 214.64758 163.345164 " transform="matrix(0.996612,0,0,-0.996612,0.497699,284.065124)"/>
<g clip-path="url(#clip6)" clip-rule="nonzero">
<path style="fill:none;stroke-width:1.5;stroke-linecap:butt;stroke-linejoin:round;stroke:rgb(0%,0%,0%);stroke-opacity:1;stroke-miterlimit:10;" d="M 59.802592 147.42403 L 79.572706 146.855698 L 93.957384 146.224653 L 102.631306 145.699436 L 112.516363 144.899852 L 120.31623 144.025796 L 125.693826 143.261488 L 132.282558 142.038594 L 135.578883 141.274286 L 141.219088 139.632002 L 142.167614 139.330198 L 146.949442 137.437065 L 148.756346 136.6414 L 152.052671 134.936404 L 155.345077 132.976639 L 158.641403 130.777782 L 165.230134 125.858771 L 170.035479 122.064665 L 178.407597 115.934518 L 179.058239 115.472014 L 182.448634 113.277076 L 186.168268 111.082139 L 190.354327 108.883282 L 194.881386 106.829448 L 198.173791 105.539922 L 201.470117 104.426776 L 204.762523 103.47041 L 210.128361 102.294551 L 211.351254 102.063298 L 214.64758 101.592955 L 217.939986 101.283312 L 221.236311 101.126531 L 224.532637 101.126531 L 227.825043 101.283312 L 231.121368 101.592955 L 235.636668 102.294551 L 237.7101 102.686504 L 241.002506 103.47041 L 244.498727 104.493408 L 247.591237 105.539922 L 250.887563 106.829448 L 255.410701 108.883282 L 259.59676 111.082139 L 264.065025 113.759179 L 267.361351 115.934518 L 272.856533 119.865808 L 281.350157 126.454539 L 284.215334 128.653396 L 287.233373 130.848333 L 290.537537 133.043271 L 294.308126 135.242128 L 297.012602 136.6414 L 300.305008 138.095546 L 304.545941 139.632002 L 306.89374 140.380633 L 312.580979 141.830859 L 316.778797 142.693156 L 323.367528 143.751429 L 329.956259 144.562772 L 339.841316 145.464264 L 351.807644 146.224653 L 362.899917 146.730273 L 379.373705 147.259409 L 385.962436 147.42403 " transform="matrix(0.996612,0,0,-0.996612,0.497699,284.065124)"/>
</g>
<path style="fill:none;stroke-width:1.5;stroke-linecap:butt;stroke-linejoin:round;stroke:rgb(0%,0%,0%);stroke-opacity:1;stroke-miterlimit:10;" d="M 211.351254 163.341245 L 208.058848 163.791991 L 208.058848 163.79591 L 204.762523 164.430874 L 201.470117 165.253976 L 198.965537 165.990847 L 198.173791 166.347525 L 194.881386 167.848705 L 194.160192 168.185785 L 191.58506 170.020125 L 191.067682 170.384642 L 188.951135 172.579579 L 188.292654 173.673128 L 187.536185 174.774516 L 186.595497 176.973373 L 186.093797 179.16831 L 185.917418 181.363248 L 186.019326 183.562104 L 186.379923 185.757042 L 186.999209 187.951979 L 187.888942 190.150836 L 188.292654 190.915144 L 188.982492 192.345773 L 190.33081 194.54463 L 191.58506 196.186913 L 191.996611 196.739567 L 193.952457 198.934505 L 194.881386 199.824238 L 196.304175 201.133361 L 198.173791 202.618864 L 199.149755 203.328299 L 201.470117 204.837318 L 202.681252 205.523236 L 204.762523 206.612866 L 207.341574 207.722093 L 208.058848 208.016058 L 211.351254 209.101768 L 214.64758 209.881754 L 214.878832 209.91703 L 217.939986 210.406972 L 221.236311 210.665661 L 224.532637 210.665661 L 227.825043 210.406972 L 230.890116 209.91703 L 231.121368 209.881754 L 234.413774 209.101768 L 237.7101 208.016058 L 238.427374 207.722093 L 241.002506 206.612866 L 243.087696 205.523236 L 244.298831 204.837318 L 246.619193 203.328299 L 247.591237 202.618864 L 249.464773 201.133361 L 250.887563 199.824238 L 251.816491 198.934505 L 253.768418 196.739567 L 254.179969 196.186913 L 255.434218 194.54463 L 256.786457 192.345773 L 257.476294 190.915144 L 257.876086 190.150836 L 258.76582 187.951979 L 259.385106 185.757042 L 259.745702 183.562104 L 259.85153 181.363248 L 259.675151 179.16831 L 259.169531 176.973373 L 258.228844 174.774516 L 257.476294 173.673128 L 256.817813 172.579579 L 254.697347 170.384642 L 254.179969 170.020125 L 251.608756 168.185785 L 250.887563 167.848705 L 247.591237 166.347525 L 246.803411 165.990847 L 244.298831 165.253976 L 241.002506 164.430874 L 237.7101 163.79591 L 237.70618 163.791991 L 234.413774 163.341245 L 231.121368 163.019843 L 227.825043 162.816027 L 224.532637 162.71412 L 221.236311 162.71412 L 217.939986 162.816027 L 214.64758 163.019843 L 211.351254 163.341245 " transform="matrix(0.996612,0,0,-0.996612,0.497699,284.065124)"/>
<g clip-path="url(#clip7)" clip-rule="nonzero">
<path style="fill:none;stroke-width:1.5;stroke-linecap:butt;stroke-linejoin:round;stroke:rgb(0%,0%,0%);stroke-opacity:1;stroke-miterlimit:10;" d="M 59.802592 162.694522 L 168.52254 162.694522 L 168.616609 165.990847 L 169.02816 170.384642 L 169.812066 174.774516 L 170.36472 176.973373 L 171.03104 179.16831 L 172.638048 183.562104 L 173.594413 185.757042 L 175.922615 190.150836 L 177.274853 192.345773 L 180.461431 196.739567 L 184.424077 201.133361 L 188.292654 204.617824 L 189.390123 205.523236 L 192.416001 207.722093 L 195.959257 209.91703 L 198.173791 211.116407 L 201.470117 212.664621 L 205.87175 214.310824 L 208.058848 215.000662 L 211.351254 215.827683 L 215.278624 216.505762 L 217.939986 216.835002 L 221.236311 217.038818 L 224.532637 217.038818 L 227.825043 216.835002 L 231.121368 216.431291 L 234.413774 215.827683 L 237.7101 215.000662 L 241.002506 213.950228 L 245.513886 212.111968 L 247.591237 211.116407 L 250.887563 209.285986 L 254.179969 207.138083 L 257.476294 204.617824 L 259.024509 203.328299 L 261.344871 201.133361 L 264.065025 198.158438 L 265.307517 196.739567 L 268.494095 192.345773 L 269.846334 190.150836 L 272.170615 185.757042 L 273.1309 183.562104 L 274.733989 179.16831 L 275.404228 176.973373 L 276.39587 172.579579 L 276.987719 168.185785 L 277.234649 163.791991 L 277.242488 162.694522 L 385.962436 162.694522 " transform="matrix(0.996612,0,0,-0.996612,0.497699,284.065124)"/>
</g>
<path style="fill:none;stroke-width:1.5;stroke-linecap:butt;stroke-linejoin:round;stroke:rgb(0%,0%,0%);stroke-opacity:1;stroke-miterlimit:10;" d="M 217.939986 108.554042 L 221.236311 108.354146 L 224.532637 108.354146 L 227.825043 108.554042 L 230.486404 108.883282 L 231.121368 108.961673 L 234.413774 109.565281 L 237.7101 110.388382 L 239.897198 111.082139 L 241.002506 111.442736 L 244.298831 112.728342 L 245.513886 113.277076 L 247.591237 114.272637 L 249.809692 115.472014 L 250.887563 116.103058 L 253.349028 117.67087 L 254.179969 118.254881 L 256.378825 119.865808 L 257.476294 120.771219 L 259.024509 122.064665 L 260.772619 123.722626 L 261.344871 124.259602 L 263.426142 126.454539 L 264.065025 127.234526 L 265.307517 128.653396 L 266.961559 130.848333 L 267.361351 131.467619 L 268.494095 133.043271 L 269.846334 135.242128 L 270.653757 136.794262 L 271.04179 137.437065 L 272.170615 139.632002 L 273.1309 141.830859 L 273.938324 144.025796 L 273.950082 144.064992 L 274.733989 146.224653 L 275.404228 148.41959 L 275.952963 150.614528 L 276.39587 152.813385 L 276.736869 155.008322 L 276.987719 157.203259 L 277.152339 159.402116 L 277.234649 161.597053 L 273.950082 162.694522 L 171.818866 162.694522 L 168.534299 161.597053 L 168.616609 159.402116 L 168.77731 157.203259 L 169.02816 155.008322 L 169.373078 152.813385 L 169.812066 150.614528 L 170.36472 148.41959 L 171.03104 146.224653 L 171.818866 144.064992 L 171.830624 144.025796 L 172.638048 141.830859 L 173.594413 139.632002 L 174.723238 137.437065 L 175.111272 136.794262 L 175.922615 135.242128 L 177.274853 133.043271 L 178.407597 131.467619 L 178.807389 130.848333 L 180.461431 128.653396 L 181.700003 127.234526 L 182.338887 126.454539 L 184.424077 124.259602 L 184.996329 123.722626 L 186.744439 122.064665 L 188.292654 120.771219 L 189.390123 119.865808 L 191.58506 118.254881 L 192.416001 117.67087 L 194.881386 116.103058 L 195.959257 115.472014 L 198.173791 114.272637 L 200.255062 113.277076 L 201.470117 112.728342 L 204.762523 111.442736 L 205.87175 111.082139 L 208.058848 110.388382 L 211.351254 109.565281 L 214.64758 108.961673 L 215.278624 108.883282 L 217.939986 108.554042 " transform="matrix(0.996612,0,0,-0.996612,0.497699,284.065124)"/>
<g clip-path="url(#clip8)" clip-rule="nonzero">
<path style="fill:none;stroke-width:1.5;stroke-linecap:butt;stroke-linejoin:round;stroke:rgb(0%,0%,0%);stroke-opacity:1;stroke-miterlimit:10;" d="M 59.802592 177.968934 L 79.572706 178.537266 L 93.957384 179.16831 L 102.631306 179.689608 L 112.516363 180.493112 L 120.31623 181.363248 L 125.693826 182.131476 L 132.282558 183.354369 L 135.578883 184.114758 L 141.219088 185.757042 L 142.167614 186.062765 L 146.949442 187.951979 L 148.756346 188.751563 L 152.052671 190.45264 L 155.345077 192.412405 L 158.641403 194.611262 L 165.230134 199.530273 L 170.035479 203.328299 L 178.407597 209.458445 L 179.058239 209.91703 L 182.448634 212.111968 L 186.168268 214.310824 L 190.354327 216.505762 L 194.881386 218.559596 L 198.173791 219.849122 L 201.470117 220.966188 L 204.762523 221.918634 L 210.128361 223.094493 L 211.351254 223.325745 L 214.64758 223.796089 L 217.939986 224.109652 L 221.236311 224.262513 L 224.532637 224.262513 L 227.825043 224.109652 L 231.121368 223.796089 L 235.636668 223.094493 L 237.7101 222.70254 L 241.002506 221.918634 L 244.498727 220.899556 L 247.591237 219.849122 L 250.887563 218.559596 L 255.410701 216.505762 L 259.59676 214.310824 L 264.065025 211.629865 L 267.361351 209.458445 L 272.856533 205.523236 L 281.350157 198.934505 L 284.215334 196.739567 L 287.233373 194.54463 L 290.537537 192.345773 L 294.308126 190.150836 L 297.012602 188.751563 L 300.305008 187.297417 L 304.545941 185.757042 L 306.89374 185.008411 L 312.580979 183.562104 L 316.778797 182.695888 L 323.367528 181.637615 L 329.956259 180.826272 L 339.841316 179.928699 L 351.807644 179.16831 L 362.899917 178.658771 L 379.373705 178.129635 L 385.962436 177.968934 " transform="matrix(0.996612,0,0,-0.996612,0.497699,284.065124)"/>
</g>
<path style="fill:none;stroke-width:1.5;stroke-linecap:butt;stroke-linejoin:round;stroke:rgb(0%,0%,0%);stroke-opacity:1;stroke-miterlimit:10;" d="M 217.939986 114.985992 L 221.236311 114.727303 L 224.532637 114.727303 L 227.825043 114.985992 L 230.890116 115.472014 L 231.121368 115.511209 L 234.413774 116.287276 L 237.7101 117.376906 L 238.427374 117.67087 L 241.002506 118.776178 L 243.087696 119.865808 L 244.298831 120.551726 L 246.619193 122.064665 L 247.591237 122.77018 L 249.464773 124.259602 L 250.887563 125.568725 L 251.816491 126.454539 L 253.768418 128.653396 L 254.179969 129.20605 L 255.434218 130.848333 L 256.786457 133.043271 L 257.476294 134.477819 L 257.876086 135.242128 L 258.76582 137.437065 L 259.385106 139.632002 L 259.745702 141.830859 L 259.85153 144.025796 L 259.675151 146.224653 L 259.169531 148.41959 L 258.228844 150.614528 L 257.476294 151.719835 L 256.817813 152.813385 L 254.697347 155.008322 L 254.179969 155.368919 L 251.608756 157.203259 L 250.887563 157.544258 L 247.591237 159.041519 L 246.803411 159.402116 L 244.298831 160.138988 L 241.002506 160.95817 L 237.7101 161.597053 L 237.70618 161.597053 L 234.413774 162.047799 L 231.121368 162.369201 L 227.825043 162.576936 L 224.532637 162.678844 L 221.236311 162.678844 L 217.939986 162.576936 L 214.64758 162.369201 L 211.351254 162.047799 L 208.058848 161.597053 L 204.762523 160.95817 L 201.470117 160.138988 L 198.965537 159.402116 L 198.173791 159.041519 L 194.881386 157.544258 L 194.160192 157.203259 L 191.58506 155.368919 L 191.067682 155.008322 L 188.951135 152.813385 L 188.292654 151.719835 L 187.536185 150.614528 L 186.595497 148.41959 L 186.093797 146.224653 L 185.917418 144.025796 L 186.019326 141.830859 L 186.379923 139.632002 L 186.999209 137.437065 L 187.888942 135.242128 L 188.292654 134.477819 L 188.982492 133.043271 L 190.33081 130.848333 L 191.58506 129.20605 L 191.996611 128.653396 L 193.952457 126.454539 L 194.881386 125.568725 L 196.304175 124.259602 L 198.173791 122.77018 L 199.149755 122.064665 L 201.470117 120.551726 L 202.681252 119.865808 L 204.762523 118.776178 L 207.341574 117.67087 L 208.058848 117.376906 L 211.351254 116.287276 L 214.64758 115.511209 L 214.878832 115.472014 L 217.939986 114.985992 " transform="matrix(0.996612,0,0,-0.996612,0.497699,284.065124)"/>
<g clip-path="url(#clip9)" clip-rule="nonzero">
<path style="fill:none;stroke-width:1.5;stroke-linecap:butt;stroke-linejoin:round;stroke:rgb(0%,0%,0%);stroke-opacity:1;stroke-miterlimit:10;" d="M 59.802592 193.145358 L 72.980055 193.796 L 86.161437 194.666135 L 96.042575 195.524513 L 105.927632 196.63766 L 112.516363 197.566588 L 120.347586 198.934505 L 125.693826 200.05549 L 132.282558 201.725211 L 138.871289 203.747689 L 145.46002 206.166039 L 152.052671 208.972423 L 161.933809 213.734653 L 168.52254 217.050576 L 176.432154 220.899556 L 181.700003 223.243435 L 188.292654 225.861682 L 194.881386 228.072297 L 200.882187 229.683225 L 204.762523 230.537682 L 208.058848 231.129531 L 214.000857 231.882081 L 214.64758 231.948713 L 217.939986 232.187805 L 221.236311 232.30931 L 224.532637 232.30931 L 227.825043 232.187805 L 231.764171 231.882081 L 234.413774 231.599875 L 237.7101 231.129531 L 241.002506 230.537682 L 247.591237 229.009065 L 254.179969 227.021863 L 260.772619 224.599593 L 267.361351 221.793209 L 273.950082 218.685021 L 293.716277 208.972423 L 300.305008 206.166039 L 306.89374 203.747689 L 313.482471 201.725211 L 320.071202 200.05549 L 326.659934 198.691494 L 333.252585 197.566588 L 339.841316 196.63766 L 349.722454 195.524513 L 361.292909 194.54463 L 372.784974 193.796 L 385.962436 193.145358 " transform="matrix(0.996612,0,0,-0.996612,0.497699,284.065124)"/>
</g>
<path style="fill:none;stroke-width:1.5;stroke-linecap:butt;stroke-linejoin:round;stroke:rgb(0%,0%,0%);stroke-opacity:1;stroke-miterlimit:10;" d="M 214.64758 121.249402 L 217.939986 120.59876 L 221.236311 120.281278 L 224.532637 120.281278 L 227.825043 120.59876 L 231.121368 121.249402 L 233.759213 122.064665 L 234.413774 122.26848 L 237.7101 123.679511 L 238.780132 124.259602 L 241.002506 125.576564 L 242.248916 126.454539 L 244.298831 128.112501 L 244.8946 128.653396 L 246.98371 130.848333 L 247.591237 131.636159 L 248.657349 133.043271 L 249.962553 135.242128 L 250.887563 137.386111 L 250.91108 137.437065 L 251.644032 139.632002 L 252.071261 141.830859 L 252.200605 144.025796 L 252.012468 146.224653 L 251.467653 148.41959 L 250.887563 149.705197 L 250.558322 150.614528 L 249.288394 152.813385 L 247.591237 154.60461 L 247.281594 155.008322 L 244.518325 157.203259 L 244.298831 157.316926 L 241.002506 159.131668 L 240.571357 159.402116 L 237.7101 160.417274 L 234.413774 161.381479 L 233.821925 161.597053 L 231.121368 162.04388 L 227.825043 162.45935 L 224.532637 162.659246 L 221.236311 162.659246 L 217.939986 162.45935 L 214.64758 162.04388 L 211.943104 161.597053 L 211.351254 161.381479 L 208.058848 160.417274 L 205.197591 159.402116 L 204.762523 159.131668 L 201.470117 157.316926 L 201.246704 157.203259 L 198.487354 155.008322 L 198.173791 154.60461 L 196.480554 152.813385 L 195.210626 150.614528 L 194.881386 149.705197 L 194.301295 148.41959 L 193.752561 146.224653 L 193.568343 144.025796 L 193.693768 141.830859 L 194.120997 139.632002 L 194.857868 137.437065 L 194.881386 137.386111 L 195.802475 135.242128 L 197.111599 133.043271 L 198.173791 131.636159 L 198.785238 130.848333 L 200.870429 128.653396 L 201.470117 128.112501 L 203.520032 126.454539 L 204.762523 125.576564 L 206.988816 124.259602 L 208.058848 123.679511 L 211.351254 122.26848 L 212.009736 122.064665 L 214.64758 121.249402 " transform="matrix(0.996612,0,0,-0.996612,0.497699,284.065124)"/>
<g clip-path="url(#clip10)" clip-rule="nonzero">
<path style="fill:none;stroke-width:1.5;stroke-linecap:butt;stroke-linejoin:round;stroke:rgb(0%,0%,0%);stroke-opacity:1;stroke-miterlimit:10;" d="M 59.802592 208.153241 L 72.980055 209.027297 L 86.161437 210.160041 L 96.042575 211.241832 L 105.927632 212.582311 L 112.516363 213.652343 L 119.105095 214.894834 L 126.438537 216.505762 L 132.282558 217.963827 L 138.871289 219.817765 L 145.46002 221.875519 L 155.380353 225.29335 L 175.111272 232.321069 L 181.700003 234.445455 L 188.292654 236.338588 L 194.881386 237.957354 L 201.470117 239.262558 L 208.058848 240.234602 L 214.64758 240.857807 L 221.236311 241.128255 L 227.825043 241.038106 L 234.413774 240.58736 L 241.002506 239.791695 L 247.591237 238.647192 L 254.179969 237.185207 L 260.772619 235.425337 L 267.361351 233.406779 L 277.242488 230.032063 L 287.127545 226.46137 L 297.012602 222.976907 L 303.601334 220.825085 L 310.789753 218.704619 L 316.778797 217.117208 L 323.367528 215.584672 L 329.956259 214.252031 L 336.544991 213.099689 L 346.430048 211.657302 L 356.311185 210.497121 L 366.196242 209.556433 L 379.373705 208.560873 L 385.962436 208.153241 " transform="matrix(0.996612,0,0,-0.996612,0.497699,284.065124)"/>
</g>
<path style="fill:none;stroke-width:1.5;stroke-linecap:butt;stroke-linejoin:round;stroke:rgb(0%,0%,0%);stroke-opacity:1;stroke-miterlimit:10;" d="M 214.64758 126.270321 L 217.939986 125.44722 L 221.236311 125.051347 L 224.532637 125.051347 L 227.825043 125.44722 L 231.121368 126.270321 L 231.615229 126.454539 L 234.413774 127.53633 L 236.467608 128.653396 L 237.7101 129.390268 L 239.654187 130.848333 L 241.002506 132.035951 L 242.001986 133.043271 L 243.765775 135.242128 L 244.298831 136.100505 L 245.110174 137.437065 L 246.090057 139.632002 L 246.709343 141.830859 L 247.011147 144.025796 L 247.007227 146.224653 L 246.693665 148.41959 L 246.019505 150.614528 L 244.839726 152.813385 L 244.298831 153.444429 L 243.275834 155.008322 L 241.002506 157.007283 L 240.837885 157.203259 L 237.7101 159.20222 L 237.471008 159.402116 L 234.413774 160.656366 L 231.86216 161.597053 L 231.121368 161.718559 L 227.825043 162.337845 L 224.532637 162.639649 L 221.236311 162.639649 L 217.939986 162.337845 L 214.64758 161.718559 L 213.906789 161.597053 L 211.351254 160.656366 L 208.29794 159.402116 L 208.058848 159.20222 L 204.931063 157.203259 L 204.762523 157.007283 L 202.493115 155.008322 L 201.470117 153.444429 L 200.929222 152.813385 L 199.745523 150.614528 L 199.075284 148.41959 L 198.761721 146.224653 L 198.757802 144.025796 L 199.055686 141.830859 L 199.678891 139.632002 L 200.658774 137.437065 L 201.470117 136.100505 L 202.003173 135.242128 L 203.766962 133.043271 L 204.762523 132.035951 L 206.110842 130.848333 L 208.058848 129.390268 L 209.30134 128.653396 L 211.351254 127.53633 L 214.153719 126.454539 L 214.64758 126.270321 " transform="matrix(0.996612,0,0,-0.996612,0.497699,284.065124)"/>
<g clip-path="url(#clip11)" clip-rule="nonzero">
<path style="fill:none;stroke-width:1.5;stroke-linecap:butt;stroke-linejoin:round;stroke:rgb(0%,0%,0%);stroke-opacity:1;stroke-miterlimit:10;" d="M 59.802592 222.945551 L 61.923058 223.094493 L 63.098918 223.176803 L 66.391324 223.423734 L 69.687649 223.682423 L 72.980055 223.95679 L 76.27638 224.250755 L 79.572706 224.556478 L 82.865112 224.885719 L 86.161437 225.230637 L 86.710172 225.29335 L 89.453843 225.595154 L 92.750169 225.987107 L 96.042575 226.398658 L 99.3389 226.833726 L 102.631306 227.30015 L 103.889476 227.488287 L 105.927632 227.790091 L 109.220038 228.311389 L 112.516363 228.860123 L 115.812689 229.444133 L 117.094375 229.683225 L 119.105095 230.0595 L 122.40142 230.702303 L 125.693826 231.384301 L 127.978913 231.882081 L 128.990152 232.097656 L 132.282558 232.842366 L 135.578883 233.618434 L 137.44066 234.077019 L 138.871289 234.425857 L 142.167614 235.252878 L 145.46002 236.111255 L 146.063628 236.271956 L 148.756346 236.985311 L 152.052671 237.875044 L 154.208413 238.470813 L 155.345077 238.776536 L 158.641403 239.681948 L 161.933809 240.58736 L 162.227774 240.66575 L 165.230134 241.481013 L 168.52254 242.362907 L 170.411754 242.864607 L 171.818866 243.225204 L 175.111272 244.063983 L 178.407597 244.867487 L 179.211101 245.059544 L 181.700003 245.635715 L 184.996329 246.364748 L 188.292654 247.046746 L 189.378364 247.254482 L 191.58506 247.677791 L 194.881386 248.253962 L 198.173791 248.77526 L 201.470117 249.233845 L 203.273101 249.453338 L 204.762523 249.633637 L 208.058848 249.966797 L 211.351254 250.237245 L 214.64758 250.44106 L 217.939986 250.578244 L 221.236311 250.648795 L 224.532637 250.648795 L 227.825043 250.578244 L 231.121368 250.44106 L 234.413774 250.237245 L 237.7101 249.966797 L 241.002506 249.633637 L 242.495847 249.453338 L 244.298831 249.233845 L 247.591237 248.77526 L 250.887563 248.253962 L 254.179969 247.677791 L 256.386664 247.254482 L 257.476294 247.046746 L 260.772619 246.364748 L 264.065025 245.635715 L 266.553928 245.059544 L 267.361351 244.867487 L 270.653757 244.063983 L 273.950082 243.225204 L 275.353274 242.864607 L 277.242488 242.362907 L 280.538814 241.481013 L 283.541174 240.66575 L 283.83122 240.58736 L 287.127545 239.681948 L 290.419951 238.776536 L 291.560535 238.470813 L 293.716277 237.875044 L 297.012602 236.985311 L 299.70532 236.271956 L 300.305008 236.111255 L 303.601334 235.252878 L 306.89374 234.425857 L 308.324368 234.077019 L 310.190065 233.618434 L 313.482471 232.842366 L 316.778797 232.097656 L 317.790035 231.882081 L 320.071202 231.384301 L 323.367528 230.702303 L 326.659934 230.0595 L 328.674573 229.683225 L 329.956259 229.444133 L 333.252585 228.860123 L 336.544991 228.311389 L 339.841316 227.790091 L 341.875553 227.488287 L 343.133722 227.30015 L 346.430048 226.833726 L 349.722454 226.398658 L 353.018779 225.987107 L 356.311185 225.595154 L 359.058776 225.29335 L 359.607511 225.230637 L 362.899917 224.885719 L 366.196242 224.556478 L 369.492568 224.250755 L 372.784974 223.95679 L 376.081299 223.682423 L 379.373705 223.423734 L 382.67003 223.176803 L 383.84197 223.094493 L 385.962436 222.945551 " transform="matrix(0.996612,0,0,-0.996612,0.497699,284.065124)"/>
</g>
<path style="fill:none;stroke-width:1.5;stroke-linecap:butt;stroke-linejoin:round;stroke:rgb(0%,0%,0%);stroke-opacity:1;stroke-miterlimit:10;" d="M 214.64758 130.613162 L 217.939986 129.609762 L 221.236311 129.139418 L 224.532637 129.139418 L 227.825043 129.609762 L 231.121368 130.613162 L 231.626988 130.848333 L 234.413774 132.208411 L 235.644507 133.043271 L 237.7101 134.665956 L 238.305868 135.242128 L 240.202921 137.437065 L 241.002506 138.687395 L 241.574757 139.632002 L 242.546801 141.830859 L 243.126891 144.025796 L 243.354224 146.224653 L 243.252316 148.41959 L 242.797651 150.614528 L 241.88832 152.813385 L 241.002506 154.036278 L 240.512564 155.008322 L 238.556718 157.203259 L 237.7101 157.748074 L 235.711139 159.402116 L 234.413774 159.935172 L 231.121368 161.346203 L 230.76861 161.597053 L 227.825043 162.220259 L 224.532637 162.62397 L 221.236311 162.62397 L 217.939986 162.220259 L 214.996418 161.597053 L 214.64758 161.346203 L 211.351254 159.935172 L 210.05389 159.402116 L 208.058848 157.748074 L 207.20831 157.203259 L 205.256384 155.008322 L 204.762523 154.036278 L 203.876709 152.813385 L 202.971297 150.614528 L 202.516632 148.41959 L 202.410804 146.224653 L 202.642057 144.025796 L 203.222147 141.830859 L 204.194191 139.632002 L 204.762523 138.687395 L 205.566027 137.437065 L 207.45916 135.242128 L 208.058848 134.665956 L 210.120522 133.043271 L 211.351254 132.208411 L 214.138041 130.848333 L 214.64758 130.613162 " transform="matrix(0.996612,0,0,-0.996612,0.497699,284.065124)"/>
<g clip-path="url(#clip12)" clip-rule="nonzero">
<path style="fill:none;stroke-width:1.5;stroke-linecap:butt;stroke-linejoin:round;stroke:rgb(0%,0%,0%);stroke-opacity:1;stroke-miterlimit:10;" d="M 59.802592 237.510528 L 63.098918 237.761378 L 66.391324 238.023986 L 69.687649 238.298353 L 71.619978 238.470813 L 72.980055 238.588399 L 76.27638 238.894122 L 79.572706 239.211604 L 82.865112 239.544764 L 86.161437 239.897522 L 89.453843 240.265958 L 92.750169 240.657911 L 92.832479 240.66575 L 96.042575 241.061623 L 99.3389 241.488852 L 102.631306 241.935678 L 105.927632 242.402102 L 109.024061 242.864607 L 109.220038 242.892044 L 112.516363 243.401583 L 115.812689 243.934639 L 119.105095 244.487293 L 122.373983 245.059544 L 122.40142 245.063464 L 125.693826 245.659233 L 128.990152 246.274599 L 132.282558 246.909563 L 134.022829 247.254482 L 135.578883 247.560205 L 138.871289 248.226525 L 142.167614 248.908524 L 144.738827 249.453338 L 145.46002 249.602281 L 148.756346 250.299957 L 152.052671 251.005473 L 155.035434 251.648276 L 155.345077 251.714908 L 158.641403 252.416504 L 161.933809 253.11418 L 165.230134 253.804018 L 165.418272 253.843213 L 168.52254 254.478177 L 171.818866 255.136658 L 175.111272 255.775542 L 176.5419 256.04207 L 178.407597 256.386989 L 181.700003 256.967079 L 184.996329 257.519733 L 188.292654 258.033192 L 189.680168 258.237007 L 191.58506 258.511374 L 194.881386 258.950362 L 198.173791 259.346234 L 201.470117 259.695073 L 204.762523 259.996877 L 208.058848 260.251646 L 210.97106 260.431944 L 211.351254 260.459381 L 214.64758 260.612243 L 217.939986 260.71807 L 221.236311 260.769024 L 224.532637 260.769024 L 227.825043 260.71807 L 231.121368 260.612243 L 234.413774 260.459381 L 234.797888 260.431944 L 237.7101 260.251646 L 241.002506 259.996877 L 244.298831 259.695073 L 247.591237 259.346234 L 250.887563 258.950362 L 254.179969 258.511374 L 256.08878 258.237007 L 257.476294 258.033192 L 260.772619 257.519733 L 264.065025 256.967079 L 267.361351 256.386989 L 269.227048 256.04207 L 270.653757 255.775542 L 273.950082 255.136658 L 277.242488 254.478177 L 280.346757 253.843213 L 280.538814 253.804018 L 283.83122 253.11418 L 287.127545 252.416504 L 290.419951 251.714908 L 290.729594 251.648276 L 293.716277 251.005473 L 297.012602 250.299957 L 300.305008 249.602281 L 301.030121 249.453338 L 303.601334 248.908524 L 306.89374 248.226525 L 310.190065 247.560205 L 311.746119 247.254482 L 313.482471 246.909563 L 316.778797 246.274599 L 320.071202 245.659233 L 323.367528 245.063464 L 323.391045 245.059544 L 326.659934 244.487293 L 329.956259 243.934639 L 333.252585 243.401583 L 336.544991 242.892044 L 336.744887 242.864607 L 339.841316 242.402102 L 343.133722 241.935678 L 346.430048 241.488852 L 349.722454 241.061623 L 352.936469 240.66575 L 353.018779 240.657911 L 356.311185 240.265958 L 359.607511 239.897522 L 362.899917 239.544764 L 366.196242 239.211604 L 369.492568 238.894122 L 372.784974 238.588399 L 374.14897 238.470813 L 376.081299 238.298353 L 379.373705 238.023986 L 382.67003 237.761378 L 385.962436 237.510528 " transform="matrix(0.996612,0,0,-0.996612,0.497699,284.065124)"/>
</g>
<path style="fill:none;stroke-width:1.5;stroke-linecap:butt;stroke-linejoin:round;stroke:rgb(0%,0%,0%);stroke-opacity:1;stroke-miterlimit:10;" d="M 221.236311 132.616042 L 224.532637 132.616042 L 226.950987 133.043271 L 227.825043 133.192213 L 231.121368 134.368072 L 232.638227 135.242128 L 234.413774 136.382711 L 235.628829 137.437065 L 237.612111 139.632002 L 237.7101 139.769186 L 239.015303 141.830859 L 239.920715 144.025796 L 240.406737 146.224653 L 240.524323 148.41959 L 240.30091 150.614528 L 239.701221 152.813385 L 238.548879 155.008322 L 237.7101 155.898055 L 236.894837 157.203259 L 234.413774 159.135588 L 234.206039 159.402116 L 231.121368 160.946411 L 230.208118 161.597053 L 227.825043 162.102673 L 224.532637 162.604373 L 221.236311 162.604373 L 217.939986 162.102673 L 215.560831 161.597053 L 214.64758 160.946411 L 211.562909 159.402116 L 211.351254 159.135588 L 208.870191 157.203259 L 208.058848 155.898055 L 207.220069 155.008322 L 206.067727 152.813385 L 205.464119 150.614528 L 205.240706 148.41959 L 205.362211 146.224653 L 205.848233 144.025796 L 206.753645 141.830859 L 208.058848 139.769186 L 208.152917 139.632002 L 210.140119 137.437065 L 211.351254 136.382711 L 213.130721 135.242128 L 214.64758 134.368072 L 217.939986 133.192213 L 218.817961 133.043271 L 221.236311 132.616042 " transform="matrix(0.996612,0,0,-0.996612,0.497699,284.065124)"/>
<path style="fill-rule:nonzero;fill:rgb(82.743835%,82.743835%,82.743835%);fill-opacity:1;stroke-width:1;stroke-linecap:butt;stroke-linejoin:miter;stroke:rgb(0%,0%,0%);stroke-opacity:1;stroke-miterlimit:10;" d="M 222.882514 108.334548 C 237.298549 108.334548 251.126654 114.064902 261.321354 124.255682 C 271.516054 134.450382 277.242488 148.278487 277.242488 162.694522 C 277.242488 177.110557 271.516054 190.938662 261.321354 201.133361 C 251.126654 211.328061 237.298549 217.054496 222.882514 217.054496 C 208.46648 217.054496 194.638375 211.328061 184.443675 201.133361 C 174.252894 190.938662 168.52254 177.110557 168.52254 162.694522 C 168.52254 148.278487 174.252894 134.450382 184.443675 124.255682 C 194.638375 114.064902 208.46648 108.334548 222.882514 108.334548 Z M 222.882514 108.334548 " transform="matrix(0.996612,0,0,-0.996612,0.497699,284.065124)"/>
<path style="fill-rule:nonzero;fill:rgb(0%,0%,0%);fill-opacity:1;stroke-width:1;stroke-linecap:butt;stroke-linejoin:miter;stroke:rgb(0%,0%,0%);stroke-opacity:1;stroke-miterlimit:10;" d="M 222.882514 214.879156 C 223.458685 214.879156 224.015259 215.110409 224.42289 215.51804 C 224.830521 215.925671 225.057854 216.478325 225.057854 217.054496 C 225.057854 217.630667 224.830521 218.18724 224.42289 218.594872 C 224.015259 219.002503 223.458685 219.229836 222.882514 219.229836 C 222.306343 219.229836 221.753689 219.002503 221.346058 218.594872 C 220.938427 218.18724 220.711094 217.630667 220.711094 217.054496 C 220.711094 216.478325 220.938427 215.925671 221.346058 215.51804 C 221.753689 215.110409 222.306343 214.879156 222.882514 214.879156 Z M 222.882514 214.879156 " transform="matrix(0.996612,0,0,-0.996612,0.497699,284.065124)"/>
<path style="fill-rule:nonzero;fill:rgb(0%,0%,0%);fill-opacity:1;stroke-width:1;stroke-linecap:butt;stroke-linejoin:miter;stroke:rgb(0%,0%,0%);stroke-opacity:1;stroke-miterlimit:10;" d="M 222.882514 106.159208 C 223.458685 106.159208 224.015259 106.390461 224.42289 106.798092 C 224.830521 107.205723 225.057854 107.758377 225.057854 108.334548 C 225.057854 108.910719 224.830521 109.463373 224.42289 109.874924 C 224.015259 110.282555 223.458685 110.509888 222.882514 110.509888 C 222.306343 110.509888 221.753689 110.282555 221.346058 109.874924 C 220.938427 109.463373 220.711094 108.910719 220.711094 108.334548 C 220.711094 107.758377 220.938427 107.205723 221.346058 106.798092 C 221.753689 106.390461 222.306343 106.159208 222.882514 106.159208 Z M 222.882514 106.159208 " transform="matrix(0.996612,0,0,-0.996612,0.497699,284.065124)"/>
<path style="fill-rule:nonzero;fill:rgb(0%,0%,0%);fill-opacity:1;stroke-width:1;stroke-linecap:butt;stroke-linejoin:miter;stroke:rgb(0%,0%,0%);stroke-opacity:1;stroke-miterlimit:10;" d="M 277.242488 160.519182 C 277.818659 160.519182 278.375233 160.750435 278.782864 161.158066 C 279.190495 161.565697 279.417828 162.118351 279.417828 162.694522 C 279.417828 163.270693 279.190495 163.823347 278.782864 164.234898 C 278.375233 164.642529 277.818659 164.869862 277.242488 164.869862 C 276.666317 164.869862 276.113663 164.642529 275.706032 164.234898 C 275.298401 163.823347 275.071068 163.270693 275.071068 162.694522 C 275.071068 162.118351 275.298401 161.565697 275.706032 161.158066 C 276.113663 160.750435 276.666317 160.519182 277.242488 160.519182 Z M 277.242488 160.519182 " transform="matrix(0.996612,0,0,-0.996612,0.497699,284.065124)"/>
<path style="fill-rule:nonzero;fill:rgb(0%,0%,0%);fill-opacity:1;stroke-width:1;stroke-linecap:butt;stroke-linejoin:miter;stroke:rgb(0%,0%,0%);stroke-opacity:1;stroke-miterlimit:10;" d="M 168.52254 160.519182 C 169.098711 160.519182 169.655285 160.750435 170.062916 161.158066 C 170.470547 161.565697 170.69788 162.118351 170.69788 162.694522 C 170.69788 163.270693 170.470547 163.823347 170.062916 164.234898 C 169.655285 164.642529 169.098711 164.869862 168.52254 164.869862 C 167.946369 164.869862 167.393715 164.642529 166.986084 164.234898 C 166.578453 163.823347 166.35112 163.270693 166.35112 162.694522 C 166.35112 162.118351 166.578453 161.565697 166.986084 161.158066 C 167.393715 160.750435 167.946369 160.519182 168.52254 160.519182 Z M 168.52254 160.519182 " transform="matrix(0.996612,0,0,-0.996612,0.497699,284.065124)"/>
<path style="fill-rule:nonzero;fill:rgb(100%,0%,0%);fill-opacity:1;stroke-width:3;stroke-linecap:butt;stroke-linejoin:miter;stroke:rgb(100%,0%,0%);stroke-opacity:1;stroke-miterlimit:10;" d="M 289.475344 217.054496 L 277.242488 212.978184 L 277.242488 217.027059 L 222.882514 217.027059 L 222.882514 217.081933 L 277.242488 217.081933 L 277.242488 221.130808 Z M 289.475344 217.054496 " transform="matrix(0.996612,0,0,-0.996612,0.497699,284.065124)"/>
<path style="fill-rule:nonzero;fill:rgb(100%,0%,0%);fill-opacity:1;stroke-width:3;stroke-linecap:butt;stroke-linejoin:miter;stroke:rgb(100%,0%,0%);stroke-opacity:1;stroke-miterlimit:10;" d="M 289.475344 108.334548 L 277.242488 104.258236 L 277.242488 108.307111 L 222.882514 108.307111 L 222.882514 108.361985 L 277.242488 108.361985 L 277.242488 112.41086 Z M 289.475344 108.334548 " transform="matrix(0.996612,0,0,-0.996612,0.497699,284.065124)"/>
</g>
</svg>
